<?xml version="1.0" standalone="no"?>
<!DOCTYPE svg PUBLIC "-//W3C//DTD SVG 20010904//EN"
 "http://www.w3.org/TR/2001/REC-SVG-20010904/DTD/svg10.dtd">
<svg version="1.0" xmlns="http://www.w3.org/2000/svg"
 width="1920.000000pt" height="968.000000pt" viewBox="0 0 1920.000000 968.000000"
 preserveAspectRatio="xMidYMid meet">

<g transform="translate(0.000000,968.000000) scale(0.100000,-0.100000)"
fill="#000000" stroke="none">
<path d="M0 7130 l0 -2550 9600 0 9600 0 0 2550 0 2550 -9600 0 -9600 0 0
-2550z m18507 2454 c63 -47 88 -124 63 -197 -10 -33 -67 -94 -77 -83 -2 2 0
22 6 44 17 60 4 127 -25 141 -22 10 -26 8 -35 -17 -6 -15 -16 -53 -22 -84 -7
-32 -15 -58 -18 -58 -13 0 -20 95 -9 124 12 32 10 38 -8 27 -18 -11 -42 -157
-28 -171 20 -20 -21 -10 -49 12 -68 53 -73 183 -9 240 59 52 157 62 211 22z
m-557 -54 c6 -11 16 -20 23 -19 28 3 37 -2 37 -26 0 -14 8 -29 20 -35 26 -14
26 -40 1 -47 -12 -3 -21 -15 -23 -32 -4 -34 -52 -44 -61 -12 -3 12 -13 21 -22
21 -9 0 -19 -9 -22 -21 -4 -15 -12 -19 -32 -17 -34 4 -44 53 -12 63 28 8 28
45 1 45 -16 0 -20 7 -20 30 0 28 11 36 42 31 4 0 12 8 18 19 14 26 36 26 50 0z
m-17620 -2 c0 -7 -12 -25 -27 -40 l-27 -28 73 0 c54 0 72 -3 69 -12 -3 -8 -29
-14 -73 -16 l-68 -3 28 -29 c15 -15 25 -34 23 -41 -5 -14 -98 66 -98 84 0 13
80 97 92 97 4 0 8 -5 8 -12z m989 -4 c17 -12 26 -13 34 -5 18 18 22 13 22 -26
-1 -35 -2 -37 -33 -36 -46 2 -46 1 -31 19 17 20 -2 34 -48 34 -61 0 -86 -80
-37 -119 35 -28 59 -26 90 4 14 14 29 25 34 25 17 0 11 -20 -15 -45 -36 -37
-97 -35 -137 5 -27 28 -30 36 -25 73 10 74 87 112 146 71z m14721 -59 c0 -6
-16 -26 -35 -45 -32 -31 -35 -32 -35 -12 0 27 -15 28 -63 3 l-37 -19 0 25 c0
30 50 83 79 83 15 0 21 6 21 22 0 20 3 19 35 -12 19 -19 35 -39 35 -45z m377
46 c8 -23 19 -31 48 -37 l36 -6 -25 -27 c-21 -22 -25 -33 -20 -59 7 -36 -1
-39 -34 -16 -21 14 -25 14 -57 -6 -19 -12 -35 -20 -35 -18 0 2 4 19 10 38 9
30 7 37 -16 61 l-26 28 37 7 c29 5 39 13 47 35 13 37 21 37 35 0z m2478 4 c0
-28 -29 -25 -33 3 -3 19 0 23 15 20 10 -2 18 -12 18 -23z m-18045 -21 c22 -20
40 -39 40 -43 0 -15 -79 -93 -90 -89 -7 2 0 17 20 38 l33 35 -79 5 c-91 6 -77
20 19 20 l61 0 -34 35 c-45 46 -21 45 30 -1z m1520 -44 c0 -64 -3 -80 -15 -80
-12 0 -15 16 -15 80 0 64 3 80 15 80 12 0 15 -16 15 -80z m50 70 c0 -5 -7 -10
-15 -10 -8 0 -15 5 -15 10 0 6 7 10 15 10 8 0 15 -4 15 -10z m560 -68 l0 -79
-37 -1 c-46 -2 -63 12 -63 52 0 39 15 56 52 56 23 0 28 4 28 25 0 14 5 25 10
25 6 0 10 -33 10 -78z m500 -2 c0 -64 -3 -80 -15 -80 -12 0 -15 16 -15 80 0
64 3 80 15 80 12 0 15 -16 15 -80z m50 70 c0 -5 -7 -10 -15 -10 -8 0 -15 5
-15 10 0 6 7 10 15 10 8 0 15 -4 15 -10z m80 1 c0 -5 -7 -11 -15 -15 -24 -9
-18 -26 9 -26 19 0 27 -8 36 -35 13 -40 25 -38 35 5 4 17 13 30 21 30 11 0 8
-14 -11 -67 -28 -74 -41 -93 -61 -93 -19 0 -18 10 3 25 16 12 16 17 2 61 -21
68 -49 73 -49 10 0 -25 -4 -46 -10 -46 -5 0 -10 20 -10 44 0 26 -5 47 -12 50
-10 5 -10 7 0 12 6 3 12 14 12 23 0 10 3 21 7 24 10 10 43 8 43 -2z m13428
-13 c3 -15 -4 -18 -37 -18 -39 0 -53 14 -34 34 14 14 68 1 71 -16z m417 12 c4
-7 12 -7 25 0 23 12 50 13 50 2 0 -5 -10 -8 -22 -8 -14 1 -23 -5 -23 -14 0 -8
9 -15 20 -16 54 -1 89 -55 45 -69 -11 -3 -20 -9 -20 -13 0 -12 -114 -6 -137 7
-45 24 -16 73 45 76 26 1 27 -3 6 -27 -14 -14 -14 -20 -4 -33 7 -8 20 -15 30
-15 21 0 44 25 36 39 -3 5 -3 11 1 14 5 2 3 3 -3 1 -14 -3 -26 6 -40 31 -7 11
-21 20 -33 19 -11 0 -21 3 -21 8 0 11 38 10 45 -2z m-15568 -27 c3 -10 12 -25
20 -34 8 -10 12 -29 9 -45 -2 -16 -5 -35 -5 -41 -1 -9 -19 -13 -56 -13 l-55 0
0 43 c0 60 25 107 56 107 14 0 27 -7 31 -17z m1523 2 c0 -8 7 -15 15 -15 8 0
15 -4 15 -10 0 -5 -7 -10 -15 -10 -10 0 -15 -10 -15 -30 0 -18 6 -33 15 -36
23 -9 18 -26 -7 -22 -19 2 -24 10 -26 43 -2 22 -9 44 -15 48 -9 6 -9 10 1 14
6 2 12 11 12 19 0 8 5 14 10 14 6 0 10 -7 10 -15z m12500 -145 c40 0 70 4 70
10 0 6 4 10 10 10 5 0 7 -7 4 -15 -5 -12 -25 -15 -90 -15 l-84 0 0 68 c0 92
14 102 18 13 l3 -71 69 0z m-13712 118 c15 -15 16 -53 2 -79 -7 -13 -21 -19
-45 -19 -36 0 -55 20 -55 59 0 42 68 69 98 39z m120 -45 c2 -31 -1 -53 -7 -53
-5 0 -11 19 -13 43 -2 34 -7 42 -23 42 -16 0 -21 -8 -23 -42 -5 -62 -22 -53
-22 11 l0 54 43 -2 42 -1 3 -52z m102 2 c0 -42 -3 -55 -15 -55 -12 0 -15 13
-15 55 0 42 3 55 15 55 12 0 15 -13 15 -55z m108 43 c18 -18 16 -98 -3 -98
-11 0 -15 12 -15 46 0 38 -3 45 -17 42 -13 -2 -19 -15 -21 -46 -2 -28 -8 -42
-18 -42 -10 0 -14 14 -14 55 l0 55 38 0 c21 0 43 -5 50 -12z m110 0 c7 -7 12
-20 12 -30 0 -14 -8 -18 -36 -18 -24 0 -34 -4 -31 -12 2 -7 16 -13 30 -13 16
1 27 -5 27 -12 0 -8 -13 -13 -35 -13 -35 0 -55 20 -55 56 0 42 60 70 88 42z
m112 3 c0 -5 -12 -11 -27 -13 -24 -3 -28 -8 -28 -33 0 -25 4 -30 28 -33 36 -4
35 -22 -2 -22 -54 0 -80 53 -44 92 17 18 73 25 73 9z m104 -7 c34 -34 6 -94
-44 -94 -34 0 -50 17 -50 55 0 17 5 36 12 43 17 17 64 15 82 -4z m234 4 c7 -7
12 -20 12 -30 0 -14 -8 -18 -36 -18 -24 0 -34 -4 -31 -12 2 -7 16 -13 31 -13
14 1 25 -4 23 -10 -2 -5 -19 -10 -38 -10 -27 0 -35 5 -43 27 -14 41 6 78 42
78 15 0 33 -5 40 -12z m160 -45 c2 -32 -1 -53 -7 -53 -6 0 -11 18 -11 40 0 28
-5 43 -16 47 -21 8 -34 -13 -34 -54 0 -18 -4 -33 -10 -33 -5 0 -10 24 -10 54
l0 54 43 -2 42 -1 3 -52z m110 45 c7 -7 12 -20 12 -30 0 -14 -8 -18 -35 -18
-26 0 -35 -4 -35 -16 0 -12 7 -15 30 -12 19 3 29 1 27 -6 -2 -6 -19 -11 -38
-11 -27 0 -35 5 -43 27 -14 41 6 78 42 78 15 0 33 -5 40 -12z m172 -43 c0 -42
-3 -55 -15 -55 -12 0 -15 13 -15 55 0 42 3 55 15 55 12 0 15 -13 15 -55z m308
43 c7 -7 12 -32 12 -56 l0 -43 -42 3 c-39 3 -43 6 -46 31 -3 23 1 28 27 33 17
4 31 11 31 16 0 6 -11 8 -25 6 -17 -4 -25 -1 -25 8 0 17 51 19 68 2z m119 1
c16 -14 17 -71 1 -87 -7 -7 -25 -12 -40 -12 -23 0 -28 -4 -28 -25 0 -14 -4
-25 -10 -25 -6 0 -10 33 -10 78 l0 79 37 1 c20 1 42 -3 50 -9z m120 0 c16 -14
17 -71 1 -87 -7 -7 -25 -12 -40 -12 -23 0 -28 -4 -28 -25 0 -14 -4 -25 -10
-25 -6 0 -10 33 -10 78 l0 79 37 1 c20 1 42 -3 50 -9z m12954 -9 c11 -6 19
-21 19 -35 0 -23 -4 -25 -49 -25 -58 0 -76 23 -41 52 25 21 43 22 71 8z m1867
-18 c3 -17 -2 -22 -17 -22 -14 0 -21 6 -21 18 0 38 33 41 38 4z m-1412 7 c10
-17 -13 -36 -27 -22 -12 12 -4 33 11 33 5 0 12 -5 16 -11z m-14346 -69 c0 -5
-7 -10 -15 -10 -8 0 -15 5 -15 10 0 6 7 10 15 10 8 0 15 -4 15 -10z m600 0 c0
-5 -7 -10 -15 -10 -8 0 -15 5 -15 10 0 6 7 10 15 10 8 0 15 -4 15 -10z m13746
-7 c11 -15 16 -16 33 -6 17 11 19 10 15 -2 -7 -18 -35 -20 -52 -3 -9 9 -15 9
-24 0 -14 -14 -48 -16 -48 -3 0 5 9 7 20 4 12 -3 22 1 26 11 8 20 14 20 30 -1z
m1414 -3 c0 -13 -7 -20 -20 -20 -13 0 -20 7 -20 20 0 13 7 20 20 20 13 0 20
-7 20 -20z m-12740 -605 l0 -145 -205 0 -205 0 0 145 0 145 205 0 205 0 0
-145z m6400 0 l0 -145 -205 0 -205 0 0 145 0 145 205 0 205 0 0 -145z m6400 0
l0 -145 -205 0 -205 0 0 145 0 145 205 0 205 0 0 -145z m-5750 105 c0 -5 -7
-10 -15 -10 -8 0 -15 5 -15 10 0 6 7 10 15 10 8 0 15 -4 15 -10z m670 0 c0 -5
-7 -10 -15 -10 -8 0 -15 5 -15 10 0 6 7 10 15 10 8 0 15 -4 15 -10z m-13457
-7 c-7 -2 -13 -18 -13 -34 0 -26 3 -29 35 -29 30 0 35 3 35 25 0 13 -8 29 -17
34 -13 7 21 10 120 11 l138 0 25 -55 c14 -30 27 -55 30 -55 2 0 15 25 29 55
l24 55 68 0 c51 -1 64 -3 51 -11 -14 -8 -18 -24 -18 -74 0 -65 0 -65 29 -65
16 0 34 7 41 15 15 19 23 14 14 -9 -5 -13 -23 -16 -107 -16 -79 0 -98 3 -89
12 7 7 12 32 11 58 l-1 45 -26 -57 c-15 -32 -29 -58 -33 -58 -4 0 -18 26 -32
58 l-26 57 0 -52 c-1 -32 4 -53 12 -56 6 -3 -4 -5 -23 -5 -19 0 -29 2 -22 5
15 6 17 143 2 143 -5 0 -10 -7 -10 -17 0 -15 -1 -15 -18 0 -34 31 -42 21 -42
-48 0 -50 4 -66 18 -74 13 -8 7 -10 -28 -11 -25 0 -40 4 -33 8 9 6 17 79 14
130 -1 18 -28 15 -40 -5 -10 -17 -10 -17 -11 0 0 10 -6 17 -12 15 -8 -3 -14
-28 -16 -64 -3 -46 0 -61 14 -71 15 -11 12 -13 -27 -13 -35 1 -40 3 -26 11 10
6 17 22 17 39 0 28 -3 30 -35 30 -33 0 -35 -2 -35 -34 0 -19 6 -37 13 -39 6
-3 -6 -6 -27 -6 -31 -1 -37 2 -28 11 16 16 16 135 0 141 -7 3 5 5 27 5 22 0
34 -2 28 -5z m6487 -21 l0 -26 -20 22 c-25 26 -38 27 -68 6 -33 -23 -31 -88 4
-111 25 -16 28 -16 55 0 16 9 29 12 29 7 0 -15 -36 -30 -69 -30 -69 0 -98 84
-48 138 17 18 30 22 69 21 44 -2 48 -4 48 -27z m120 -1 l0 -25 -20 22 c-23 25
-29 26 -50 12 -16 -11 -11 -17 55 -63 50 -35 24 -80 -44 -76 -35 3 -41 6 -41
26 l0 23 21 -21 c11 -11 28 -19 37 -17 28 5 19 35 -18 60 -61 41 -49 90 21 86
34 -2 39 -5 39 -27z m130 0 l0 -25 -20 22 c-23 25 -29 26 -50 12 -16 -11 -11
-17 55 -63 50 -35 24 -80 -44 -76 -35 3 -41 6 -41 26 l0 23 21 -21 c11 -11 28
-19 37 -17 28 5 19 35 -18 60 -61 41 -49 90 21 86 34 -2 39 -5 39 -27z m6900
-1 c0 -11 6 -20 13 -21 10 0 10 -2 0 -6 -17 -6 -17 -83 -1 -83 9 0 9 -3 1 -11
-23 -23 -43 -2 -43 46 0 25 -5 45 -11 45 -6 0 -3 7 5 16 9 8 16 20 16 25 0 5
5 9 10 9 6 0 10 -9 10 -20z m-850 -81 c0 -33 -5 -69 -10 -80 -11 -20 -60 -27
-60 -8 0 7 9 9 21 6 19 -5 20 -2 19 61 -2 86 -3 82 15 82 12 0 15 -13 15 -61z
m104 44 c3 -10 6 -34 8 -53 3 -35 3 -35 -40 -37 -32 -2 -44 1 -49 14 -6 15 21
46 49 55 7 3 8 10 3 18 -6 10 -11 9 -21 -5 -16 -21 -30 -14 -21 10 9 22 64 20
71 -2z m69 9 c-8 -5 -8 -14 1 -37 l13 -30 12 23 c7 13 10 30 7 38 -3 9 1 14
13 14 17 0 17 -4 -7 -55 -14 -30 -28 -55 -31 -54 -3 0 -18 25 -32 55 l-26 54
31 0 c17 0 26 -4 19 -8z m155 -39 c2 -24 7 -43 13 -43 5 0 9 5 9 12 0 6 8 4
19 -6 11 -10 25 -15 32 -10 8 5 2 15 -20 33 -39 32 -34 61 10 61 23 0 29 -4
29 -22 0 -21 0 -21 -14 -2 -11 14 -17 16 -26 7 -10 -9 -5 -15 19 -28 24 -12
31 -22 29 -38 -3 -21 -9 -22 -90 -24 -62 -1 -88 2 -91 11 -7 17 3 30 31 45 12
6 22 18 22 26 0 20 -17 19 -29 -2 -11 -21 -26 -11 -17 12 4 11 16 15 38 13 31
-3 33 -6 36 -45z m197 36 c11 -16 -3 -23 -19 -10 -21 18 -36 5 -36 -30 0 -32
24 -49 43 -30 18 18 29 13 17 -9 -21 -40 -90 -15 -90 32 0 43 66 79 85 47z
m147 -46 l3 -53 -30 1 c-16 0 -24 3 -17 6 6 2 12 22 12 43 0 36 -2 39 -27 37
-23 -2 -29 -8 -31 -30 -2 -16 2 -35 9 -43 9 -12 6 -14 -22 -14 -26 0 -30 3
-21 12 15 15 16 78 1 78 -5 0 -8 4 -5 9 3 5 32 8 65 8 l59 0 4 -54z m116 45
c17 -15 15 -63 -4 -82 -8 -9 -25 -16 -36 -16 -16 0 -19 -5 -16 -25 5 -22 2
-25 -26 -24 -17 0 -25 3 -18 6 8 3 12 27 12 69 0 44 -4 64 -12 64 -9 0 -9 3 1
9 19 12 83 11 99 -1z m-12688 -487 c0 -38 4 -61 13 -64 6 -3 -8 -5 -33 -5 -25
0 -37 2 -27 5 13 4 17 15 17 58 0 33 -5 55 -12 58 -7 3 -1 6 15 6 26 1 27 0
27 -58z m100 0 c0 -48 3 -60 18 -64 9 -3 -3 -5 -28 -5 -25 0 -37 2 -27 5 13 4
17 15 17 58 0 43 -4 54 -17 58 -11 3 -7 5 10 6 27 1 27 0 27 -58z m630 0 c0
-48 3 -60 18 -64 9 -3 -3 -5 -28 -5 -25 0 -37 2 -27 5 13 4 17 15 17 58 0 43
-4 54 -17 58 -11 3 -7 5 10 6 27 1 27 0 27 -58z m130 -5 l0 -64 -37 1 c-34 2
-38 5 -41 30 -4 33 13 57 39 57 12 0 19 7 19 20 0 11 5 20 10 20 6 0 10 -28
10 -64z m5128 53 c-11 -6 -18 -22 -18 -39 0 -17 -6 -30 -12 -31 -10 0 -10 -2
0 -6 6 -2 12 -18 12 -33 0 -17 7 -34 18 -40 15 -9 14 -10 -8 -8 -20 2 -26 9
-28 33 -2 17 -10 35 -18 41 -13 10 -13 12 1 18 9 3 15 18 15 34 0 34 6 42 34
42 19 -1 19 -2 4 -11z m-6238 -24 c0 -18 5 -25 20 -25 15 0 20 7 20 25 0 16 6
25 15 25 12 0 15 -13 15 -60 0 -47 -3 -60 -15 -60 -10 0 -15 10 -15 30 0 23
-4 30 -20 30 -16 0 -20 -7 -20 -30 0 -16 -4 -30 -10 -30 -6 0 -10 27 -10 60 0
33 4 60 10 60 6 0 10 -11 10 -25z m158 -17 c23 -23 13 -38 -24 -38 -31 0 -35
-2 -24 -14 6 -8 24 -17 38 -19 16 -3 11 -4 -12 -3 -48 1 -65 23 -48 60 13 28
49 35 70 14z m325 -10 c18 -29 -7 -68 -43 -68 -32 0 -53 30 -42 60 12 34 66
39 85 8z m148 -9 c5 -16 7 -18 8 -6 1 24 20 21 31 -5 8 -21 9 -20 9 10 1 17 6
32 11 32 11 0 14 -49 4 -74 -8 -22 -34 -20 -34 2 -1 16 -1 16 -11 0 -14 -26
-39 -22 -39 5 0 12 -3 33 -7 46 -4 17 -2 22 8 19 7 -2 16 -15 20 -29z m168 9
c12 -32 2 -57 -25 -64 -48 -12 -75 18 -56 62 16 33 69 34 81 2z m106 11 c11
-16 -3 -23 -19 -10 -22 18 -36 5 -36 -35 0 -50 -17 -42 -22 11 l-3 45 37 0
c20 0 40 -5 43 -11z m260 -19 c-4 -6 -1 -18 7 -27 12 -15 11 -15 -9 -3 -16 11
-19 17 -11 27 13 16 22 17 13 3z m459 -20 c-6 -6 -10 -3 -10 10 0 13 4 16 10
10 7 -7 7 -13 0 -20z m-2003 -27 c13 -16 12 -17 -3 -4 -17 13 -22 21 -14 21 2
0 10 -8 17 -17z m186 -9 c-3 -3 -12 -4 -19 -1 -8 3 -5 6 6 6 11 1 17 -2 13 -5z
m1706 -1 c-7 -2 -21 -2 -30 0 -10 3 -4 5 12 5 17 0 24 -2 18 -5z m4620 0 c-7
-2 -19 -2 -25 0 -7 3 -2 5 12 5 14 0 19 -2 13 -5z m297 -162 c0 -48 3 -60 18
-64 9 -3 -1 -5 -23 -5 -22 0 -32 2 -22 5 13 4 17 15 17 58 0 43 -4 54 -17 58
-14 4 -12 5 5 6 20 1 22 -3 22 -58z m500 36 c0 -18 5 -23 28 -22 22 0 28 -5
30 -28 4 -35 -13 -57 -44 -57 -13 0 -24 1 -25 3 -8 24 -7 127 1 127 5 0 10
-10 10 -23z m140 -36 c0 -48 3 -60 18 -64 9 -3 -3 -5 -28 -5 -25 0 -37 2 -27
5 13 4 17 15 17 58 0 43 -4 54 -17 58 -11 3 -7 5 10 6 27 1 27 0 27 -58z
m-826 10 c4 -5 -2 -7 -12 -4 -25 6 -45 -21 -37 -47 5 -17 13 -21 32 -17 16 3
21 1 14 -6 -5 -5 -21 -7 -35 -3 -45 11 -31 86 15 86 10 0 20 -4 23 -9z m104
-3 c7 -7 12 -21 12 -33 0 -46 -64 -64 -79 -22 -18 49 32 90 67 55z m210 0 c7
-7 12 -21 12 -33 0 -46 -64 -64 -79 -22 -18 49 32 90 67 55z m116 -3 c3 -8 1
-15 -3 -15 -5 0 -11 5 -13 12 -9 26 -38 -2 -38 -37 0 -19 -4 -35 -10 -35 -5 0
-10 19 -10 43 0 41 1 42 34 44 23 2 36 -2 40 -12z m76 0 c0 -8 -7 -15 -15 -15
-8 0 -15 7 -15 15 0 8 7 15 15 15 8 0 15 -7 15 -15z m390 -26 c0 -33 3 -40 18
-37 12 2 18 14 20 41 4 52 22 47 22 -7 0 -41 -2 -44 -27 -44 -16 0 -34 5 -40
10 -15 12 -17 78 -3 78 6 0 10 -18 10 -41z m160 22 c15 -29 13 -31 -26 -31
-43 0 -42 -22 2 -31 27 -6 27 -7 4 -8 -36 -1 -52 13 -52 44 0 44 52 63 72 26z
m85 10 c7 -12 -12 -24 -25 -16 -11 7 -4 25 10 25 5 0 11 -4 15 -9z m-635 -66
c0 -8 -7 -15 -15 -15 -8 0 -15 7 -15 15 0 8 7 15 15 15 8 0 15 -7 15 -15z
m640 -3 c0 -22 -19 -42 -39 -42 -13 0 -14 2 -2 9 8 5 11 16 8 24 -6 17 1 27
20 27 7 0 13 -8 13 -18z m-1382 -124 c7 -7 12 -25 12 -40 0 -15 6 -28 13 -29
10 0 10 -2 0 -6 -7 -2 -13 -17 -13 -32 0 -30 -16 -51 -39 -50 -11 0 -12 2 -3
6 6 2 12 17 12 32 0 15 5 32 11 38 8 8 8 13 0 17 -6 4 -11 20 -11 36 0 15 -6
31 -12 33 -9 4 -8 6 3 6 8 1 20 -4 27 -11z"/>
<path d="M18413 9573 c-7 -2 -13 -12 -13 -20 0 -13 2 -13 17 -2 13 11 17 11
20 1 3 -6 9 -9 14 -6 6 3 5 11 -2 20 -12 15 -16 16 -36 7z"/>
<path d="M18410 9500 c0 -5 4 -10 9 -10 6 0 13 5 16 10 3 6 -1 10 -9 10 -9 0
-16 -4 -16 -10z"/>
<path d="M15980 9502 c0 -6 -13 -13 -30 -17 -16 -4 -39 -18 -50 -32 -24 -30
-20 -39 8 -24 27 14 72 14 72 -1 0 -6 9 -3 20 7 11 10 20 23 20 30 0 7 -9 20
-20 30 -11 10 -20 13 -20 7z"/>
<path d="M16386 9475 c-3 -8 -15 -15 -27 -15 -21 0 -21 -1 -6 -18 10 -10 17
-25 17 -33 0 -9 11 -14 30 -14 24 0 30 4 30 23 0 12 5 22 10 22 6 0 10 5 10
10 0 6 -9 10 -20 10 -11 0 -20 7 -20 15 0 8 -4 15 -9 15 -5 0 -11 -7 -15 -15z"/>
<path d="M2904 9446 c-10 -26 1 -51 22 -54 24 -3 38 20 29 49 -7 22 -43 25
-51 5z"/>
<path d="M17393 9463 c-22 -8 -15 -40 10 -45 18 -4 22 0 22 22 0 26 -7 31 -32
23z"/>
<path d="M17525 9455 c-3 -8 -7 -22 -9 -29 -4 -12 0 -13 17 -7 12 5 23 15 25
23 4 21 -27 32 -33 13z"/>
<path d="M1835 9489 c-4 -6 -2 -15 5 -19 17 -10 42 -1 37 14 -5 16 -34 19 -42
5z"/>
<path d="M2132 9444 c-15 -26 -3 -54 23 -54 26 0 36 18 28 49 -6 25 -38 28
-51 5z"/>
<path d="M2580 9450 c0 -5 12 -10 26 -10 14 0 23 4 19 10 -3 6 -15 10 -26 10
-10 0 -19 -4 -19 -10z"/>
<path d="M2784 9446 c-11 -29 0 -51 26 -51 21 0 25 5 25 30 0 24 -5 31 -23 33
-13 2 -24 -3 -28 -12z"/>
<path d="M3030 9450 c0 -5 9 -10 20 -10 11 0 20 5 20 10 0 6 -9 10 -20 10 -11
0 -20 -4 -20 -10z"/>
<path d="M3300 9450 c0 -5 9 -10 20 -10 11 0 20 5 20 10 0 6 -9 10 -20 10 -11
0 -20 -4 -20 -10z"/>
<path d="M3785 9409 c-4 -6 -4 -13 -1 -16 8 -8 36 5 36 17 0 13 -27 13 -35 -1z"/>
<path d="M3896 9442 c-10 -30 4 -53 28 -50 31 4 30 62 -1 66 -14 2 -23 -3 -27
-16z"/>
<path d="M4015 9441 c-8 -26 4 -51 26 -51 20 0 36 40 24 59 -10 18 -43 12 -50
-8z"/>
<path d="M6010 8855 c-7 -9 -21 -13 -31 -10 -16 5 -19 1 -19 -29 0 -35 1 -36
36 -36 29 0 35 3 30 16 -4 10 1 25 10 35 9 10 13 23 9 28 -9 15 -20 14 -35 -4z"/>
<path d="M5872 8752 c2 -11 -3 -27 -11 -36 -22 -26 2 -45 27 -23 11 10 26 15
36 11 13 -5 16 1 16 30 0 35 -1 36 -36 36 -29 0 -35 -3 -32 -18z"/>
<path d="M12411 8856 c-7 -8 -21 -12 -31 -9 -17 5 -20 0 -20 -31 0 -35 1 -36
36 -36 29 0 35 3 32 18 -2 11 3 26 10 35 13 16 9 37 -7 37 -5 0 -14 -6 -20
-14z"/>
<path d="M12282 8752 c2 -11 -3 -27 -11 -36 -20 -24 1 -45 25 -25 9 8 25 13
36 11 15 -3 18 3 18 32 0 35 -1 36 -36 36 -29 0 -35 -3 -32 -18z"/>
<path d="M18820 8855 c-7 -9 -21 -13 -31 -10 -16 5 -19 1 -19 -29 0 -35 1 -36
36 -36 29 0 35 3 30 16 -4 10 1 25 10 35 9 10 13 23 9 28 -9 15 -20 14 -35 -4z"/>
<path d="M18682 8752 c2 -11 -3 -27 -11 -36 -22 -26 2 -45 27 -23 11 10 26 15
36 11 13 -5 16 1 16 30 0 35 -1 36 -36 36 -29 0 -35 -3 -32 -18z"/>
<path d="M860 8790 c0 -63 2 -70 20 -70 18 0 20 7 20 70 0 63 -2 70 -20 70
-18 0 -20 -7 -20 -70z"/>
<path d="M13267 8753 c-12 -11 -8 -23 8 -23 8 0 15 7 15 15 0 16 -12 20 -23 8z"/>
<path d="M13487 8753 c-12 -11 -8 -23 8 -23 8 0 15 7 15 15 0 16 -12 20 -23 8z"/>
<path d="M13942 8763 c4 -51 33 -54 33 -3 0 26 -5 36 -18 38 -16 3 -18 -2 -15
-35z"/>
<path d="M2114 8316 c-9 -23 0 -51 16 -51 10 0 16 12 18 33 2 24 -1 32 -13 32
-8 0 -18 -6 -21 -14z"/>
<path d="M1170 8315 c-11 -13 -9 -15 15 -15 16 0 25 5 23 12 -7 19 -24 20 -38
3z"/>
<path d="M1484 8316 c-16 -41 17 -72 36 -36 9 16 8 25 -1 36 -15 18 -28 18
-35 0z"/>
<path d="M1800 8314 c-10 -11 -11 -20 -3 -32 17 -27 38 -20 38 12 0 34 -16 44
-35 20z"/>
<path d="M7997 8093 c-4 -3 -7 -19 -7 -35 0 -37 37 -40 46 -4 9 37 -17 62 -39
39z"/>
<path d="M7354 8086 c-17 -43 25 -75 46 -36 9 16 8 25 -1 36 -15 18 -38 18
-45 0z"/>
<path d="M7564 8086 c-17 -43 25 -75 46 -36 9 16 8 25 -1 36 -15 18 -38 18
-45 0z"/>
<path d="M8307 8094 c-14 -14 -6 -24 19 -24 16 0 24 5 22 13 -5 14 -31 21 -41
11z"/>
<path d="M148 4130 c21 -9 22 -14 22 -145 0 -131 -1 -136 -22 -145 -16 -6 2
-9 62 -8 47 0 75 3 64 5 -25 5 -34 29 -34 96 l0 47 60 0 60 0 0 -57 c0 -65 -6
-78 -35 -86 -11 -2 18 -5 65 -5 60 -1 78 2 63 8 -22 9 -23 14 -23 145 0 131 1
136 23 145 15 6 -3 9 -63 8 -49 0 -75 -3 -60 -7 23 -6 25 -12 28 -69 l3 -62
-61 0 -60 0 0 48 c0 49 13 75 40 85 8 3 -23 5 -70 6 -60 0 -79 -3 -62 -9z"/>
<path d="M718 4133 c9 -3 12 -43 12 -148 0 -105 -3 -145 -12 -148 -7 -3 14 -6
47 -6 41 0 55 2 45 9 -12 7 -16 39 -18 155 l-3 145 -42 -1 c-23 0 -36 -3 -29
-6z"/>
<path d="M848 4133 c9 -3 12 -43 12 -148 0 -105 -3 -145 -12 -148 -7 -3 13 -6
45 -6 53 -1 57 0 43 15 -13 12 -16 41 -16 155 l0 139 -42 -1 c-24 0 -37 -3
-30 -6z"/>
<path d="M2123 4129 c15 -9 17 -27 17 -144 0 -117 -2 -135 -17 -144 -14 -8 -4
-10 42 -11 46 0 56 3 47 12 -8 8 -12 57 -12 155 l0 143 -47 0 c-38 -1 -44 -3
-30 -11z"/>
<path d="M2373 4129 c12 -7 17 -23 17 -59 l0 -49 -29 17 c-38 21 -72 7 -94
-41 -46 -97 23 -212 97 -163 19 12 25 13 28 3 2 -10 14 -11 47 -4 36 7 42 11
28 18 -15 9 -17 29 -17 149 l0 140 -47 0 c-38 -1 -44 -3 -30 -11z m7 -118 c14
-27 13 -134 -2 -149 -36 -36 -68 3 -68 84 0 55 14 84 40 84 11 0 24 -9 30 -19z"/>
<path d="M561 4036 c-34 -19 -50 -54 -51 -109 0 -41 5 -53 29 -78 42 -41 100
-35 130 14 13 21 13 21 -6 5 -39 -35 -75 -19 -93 41 l-9 31 61 0 61 0 -7 33
c-7 35 -47 77 -74 77 -9 -1 -28 -7 -41 -14z m59 -25 c19 -37 12 -51 -25 -51
-38 0 -40 5 -25 44 11 31 35 34 50 7z"/>
<path d="M1031 4036 c-72 -40 -67 -175 8 -206 60 -25 117 8 128 73 10 61 -4
106 -40 127 -37 23 -63 25 -96 6z m68 -20 c19 -22 10 -156 -11 -169 -12 -8
-21 -7 -32 2 -20 17 -23 150 -4 169 16 16 33 15 47 -2z"/>
<path d="M1717 4030 c-57 -45 -57 -145 0 -189 37 -30 76 -27 115 8 30 27 33
35 33 86 0 51 -3 59 -33 86 -38 34 -78 38 -115 9z m83 -26 c11 -28 12 -96 1
-134 -10 -37 -48 -39 -62 -3 -11 28 -7 132 6 152 12 21 45 12 55 -15z"/>
<path d="M2018 4023 c-27 -27 -28 -27 -28 -5 0 19 -5 22 -42 22 -33 0 -39 -3
-30 -12 7 -7 12 -43 12 -93 0 -50 -5 -86 -12 -93 -9 -9 1 -12 48 -12 45 1 55
3 42 11 -13 7 -18 23 -18 58 0 88 33 140 59 94 9 -17 11 -17 28 0 14 13 15 21
7 35 -17 26 -36 25 -66 -5z"/>
<path d="M1329 4013 c11 -16 32 -62 47 -103 14 -41 30 -79 34 -83 4 -5 20 26
35 68 16 42 31 72 35 68 4 -4 17 -35 29 -67 12 -33 25 -64 28 -69 3 -6 23 36
44 93 21 57 44 107 51 111 8 6 0 9 -22 9 -24 0 -31 -3 -21 -9 12 -8 12 -16 1
-55 -7 -26 -16 -49 -20 -51 -8 -5 -40 66 -40 89 0 8 6 17 13 19 6 3 -14 6 -46
6 -53 1 -57 0 -43 -15 9 -8 16 -18 16 -21 0 -16 -24 -83 -30 -83 -3 0 -14 23
-24 51 -16 43 -17 53 -5 60 9 6 -7 9 -44 9 l-58 0 20 -27z"/>
</g>
</svg>
